<?xml version="1.0" encoding="UTF-8" standalone="no"?>
<!DOCTYPE svg PUBLIC "-//W3C//DTD SVG 1.1//EN" "http://www.w3.org/Graphics/SVG/1.1/DTD/svg11.dtd">
<svg width="100%" height="100%" viewBox="0 0 1001 1001" version="1.1" xmlns="http://www.w3.org/2000/svg" xmlns:xlink="http://www.w3.org/1999/xlink" xml:space="preserve" xmlns:serif="http://www.serif.com/" style="fill-rule:evenodd;clip-rule:evenodd;stroke-linejoin:round;stroke-miterlimit:2;">
    <g transform="matrix(1,0,0,1,-11842,-4401)">
        <g transform="matrix(1,0,0,1,10634.1,4401.42)">
            <rect id="no-ring" serif:id="no ring" x="1208.33" y="0" width="1000" height="1000" style="fill:none;"/>
            <clipPath id="_clip1">
                <rect id="no-ring1" serif:id="no ring" x="1208.33" y="0" width="1000" height="1000"/>
            </clipPath>
            <g clip-path="url(#_clip1)">
                <g transform="matrix(1.07447,0,0,1.07447,-1430.7,-2201.69)">
                    <circle cx="2921.46" cy="2514.43" r="465.345" style="fill:rgb(5,37,33);"/>
                </g>
                <g transform="matrix(1,0,0,1,-10628.9,-5435.39)">
                    <path d="M12393.2,5694.43C12426.3,5691.19 12461.3,5689.94 12495.4,5692.47C12509.8,5693.52 12523.9,5695.24 12537.7,5697.76C12591.2,5707.49 12639.7,5728.82 12675,5765.59C12710.9,5802.88 12734.6,5856.33 12733.9,5933.09C12732.5,6074.16 12651.2,6170.39 12552.1,6233.9C12413.5,6322.76 12241.2,6345.13 12241.2,6345.13C12228.1,6346.82 12215,6342.81 12205.1,6334.14C12195.2,6325.46 12189.5,6312.95 12189.5,6299.79L12189,6096.54C12216.8,6088.55 12248.4,6077.83 12280.6,6063.65L12281,6244.58C12335.9,6232.27 12425.3,6206.34 12502.7,6156.73C12577.2,6108.96 12641.2,6038.31 12642.2,5932.2C12642.7,5885.37 12630.8,5851.88 12609,5829.14C12586.6,5805.88 12555.2,5794.1 12521.3,5787.94C12516.4,5787.05 12511.4,5786.27 12506.4,5785.6C12476.3,5781.61 12444.8,5781.64 12414.6,5783.89C12360.7,5787.9 12310.7,5799.01 12279.9,5807.08L12280.3,5961.81C12249.6,5978.72 12217.7,5991.5 12188.7,6001.03L12188.2,5773.66C12188.1,5771.25 12188.3,5768.86 12188.6,5766.51C12189.6,5758.83 12192.5,5751.75 12196.9,5745.77C12201.2,5739.77 12207,5734.77 12214,5731.4C12216.3,5730.27 12218.7,5729.34 12221.2,5728.61C12232.3,5725.17 12306.2,5702.94 12393.2,5694.43Z" style="fill:rgb(20,200,158);"/>
                </g>
                <g transform="matrix(1,0,0,1,-10628.9,-5435.39)">
                    <path d="M12189,6096.54C12134.7,6112.16 12095,6117.31 12095,6117.31C12082,6119 12068.8,6114.99 12058.9,6106.32C12049.1,6097.64 12043.4,6085.13 12043.3,6071.97L12042.2,5639.98C12042.2,5637.57 12042.3,5635.18 12042.7,5632.83C12043.7,5625.15 12046.6,5618.07 12051,5612.09C12055.3,5606.09 12061.1,5601.09 12068.1,5597.72C12070.4,5596.58 12072.9,5595.63 12075.4,5594.9C12091.4,5589.97 12228.6,5549.3 12339,5569.4C12384.7,5577.72 12426,5596.08 12456.2,5627.5C12472.9,5644.79 12486.5,5666.11 12495.4,5692.47C12461.3,5689.94 12426.3,5691.19 12393.2,5694.43C12392.2,5693.27 12391.2,5692.14 12390.2,5691.04C12362.6,5662.42 12318.4,5655.86 12274.9,5655.34C12221,5654.68 12166.9,5665.51 12134,5673.7C12134.2,5767.17 12134.9,6016.33 12134.9,6016.33C12150.6,6012.56 12169,6007.55 12188.7,6001.03C12217.7,5991.5 12249.6,5978.72 12280.3,5961.81C12288.4,5957.35 12296.5,5952.6 12304.3,5947.55C12360,5911.85 12408.6,5860.21 12414.6,5783.89C12444.8,5781.64 12476.3,5781.61 12506.4,5785.6C12500,5896.59 12433.9,5973.4 12353.8,6024.72C12330.1,6039.93 12305.2,6052.8 12280.6,6063.65C12248.4,6077.83 12216.8,6088.55 12189,6096.54Z" style="fill:rgb(218,251,230);"/>
                </g>
            </g>
        </g>
    </g>
</svg>
