<?xml version="1.0" encoding="UTF-8" standalone="no"?>
<!DOCTYPE svg PUBLIC "-//W3C//DTD SVG 1.1//EN" "http://www.w3.org/Graphics/SVG/1.1/DTD/svg11.dtd">
<svg width="100%" height="100%" viewBox="0 0 1000 821" version="1.1" xmlns="http://www.w3.org/2000/svg" xmlns:xlink="http://www.w3.org/1999/xlink" xml:space="preserve" xmlns:serif="http://www.serif.com/" style="fill-rule:evenodd;clip-rule:evenodd;stroke-linejoin:round;stroke-miterlimit:2;">
    <g transform="matrix(1,0,0,0.820712,0,0)">
        <rect id="Artboard1" x="0" y="0" width="1000" height="1000" style="fill:none;"/>
        <g id="Artboard11" serif:id="Artboard1">
            <g transform="matrix(3.39763,0,0,4.13986,-559.506,-415.921)">
                <g transform="matrix(1.33333,0,0,1.33333,0,-585.608)">
                    <path d="M173.905,587.387L173.905,651.335C173.905,675.455 166.691,683.714 143.779,693.709L135.294,676.69C150.021,669.589 152.787,665.498 152.787,650.408L152.787,606.143L136.565,606.143L141.499,587.387L173.905,587.387Z" style="fill:white;"/>
                </g>
                <g transform="matrix(1.33333,0,0,1.33333,0,-822.101)">
                    <path d="M140.826,752.755C139.256,734.964 157.01,722.653 171.065,717.597C193.715,709.493 214.497,708.953 231.467,693.94C182.764,764.526 156.114,738.437 140.826,752.755" style="fill:white;"/>
                </g>
                <g transform="matrix(1.33333,0,0,1.33333,0,-654.559)">
                    <path d="M193.23,658.127C195.697,658.397 197.565,659.053 198.948,660.056C200.78,661.407 201.864,663.336 201.864,665.999C201.864,668.701 200.817,670.901 198.874,672.444C197.528,673.486 195.622,674.219 193.23,674.567L193.23,672.792C197.042,672.02 199.06,669.666 199.06,666.077C199.098,662.835 197.154,660.558 193.23,659.902L193.23,658.127ZM184.707,658.32C186.352,658.127 188.296,658.011 190.463,658.011C191.436,658.011 192.37,658.05 193.23,658.127L193.23,659.902C192.445,659.747 191.547,659.67 190.576,659.67C189.193,659.67 188.109,659.786 187.399,659.902L187.399,672.985C188.071,673.062 189.081,673.1 190.127,673.1C191.286,673.1 192.295,672.985 193.23,672.792L193.23,674.567C192.108,674.721 190.912,674.799 189.604,674.799C187.698,674.799 186.053,674.721 184.707,674.605L184.707,658.32Z" style="fill:white;"/>
                </g>
                <g transform="matrix(0,1.33333,1.33333,0,-614.553,-40.0055)">
                    <rect x="197.211" y="665.059" width="16.556" height="2.691" style="fill:white;"/>
                </g>
                <g transform="matrix(1.33333,0,0,1.33333,0,-654.714)">
                    <path d="M216.777,658.165C218.833,658.281 220.366,658.744 221.375,659.478C222.534,660.288 223.244,661.484 223.244,662.951C223.244,664.456 222.683,665.614 221.599,666.501C220.478,667.427 218.758,668.045 216.777,668.238L216.777,666.463C219.132,666.154 220.515,664.958 220.515,663.028C220.515,661.176 219.095,660.134 216.777,659.863L216.777,658.165ZM210.349,658.436C211.619,658.243 213.339,658.127 215.506,658.127C215.955,658.127 216.366,658.127 216.777,658.165L216.777,659.863C216.404,659.825 215.993,659.786 215.581,659.786C214.385,659.786 213.488,659.863 213.04,659.979L213.04,666.424C213.638,666.54 214.385,666.578 215.282,666.578C215.806,666.578 216.329,666.54 216.777,666.463L216.777,668.238C216.254,668.277 215.731,668.315 215.208,668.315C214.385,668.315 213.675,668.277 213.04,668.161L213.04,674.799L210.349,674.799L210.349,658.436Z" style="fill:white;"/>
                </g>
                <g transform="matrix(1.33333,0,0,1.33333,0,-654.199)">
                    <path d="M228.327,657.856L228.327,667.659C228.327,671.364 230.383,672.907 233.186,672.907C236.251,672.907 238.269,671.286 238.269,667.659L238.269,657.856L240.998,657.856L240.998,667.504C240.998,672.598 237.597,674.682 233.112,674.682C228.813,674.682 225.599,672.714 225.599,667.581L225.599,657.856L228.327,657.856Z" style="fill:white;"/>
                </g>
                <g transform="matrix(1.33333,0,0,1.33333,0,-654.559)">
                    <path d="M248.399,659.94L242.045,659.94L242.045,658.127L257.556,658.127L257.556,659.94L251.165,659.94L251.165,674.683L248.399,674.683L248.399,659.94Z" style="fill:white;"/>
                </g>
                <g transform="matrix(1.33333,0,0,1.33333,0,-654.559)">
                    <path d="M263.387,658.127L265.107,658.127L272.246,674.683L269.368,674.683L267.125,669.472L263.387,669.472L263.387,667.775L266.564,667.775L264.508,663.028C264.023,661.947 263.723,660.982 263.425,660.017L263.387,660.017L263.387,658.127ZM259.687,669.472L257.519,674.683L254.716,674.683L261.818,658.127L263.387,658.127L263.387,660.017L263.35,660.017C263.051,660.982 262.714,661.986 262.303,662.989L260.247,667.775L263.387,667.775L263.387,669.472L259.687,669.472Z" style="fill:white;"/>
                </g>
                <g transform="matrix(1.33333,0,0,1.33333,0,-654.559)">
                    <path d="M288.244,674.142C287.234,674.528 285.253,674.953 282.711,674.953C276.806,674.953 272.358,671.981 272.358,666.539C272.358,661.368 276.806,657.856 283.31,657.856C285.926,657.856 287.571,658.281 288.281,658.59L287.608,660.326C286.599,659.94 285.141,659.632 283.384,659.632C278.488,659.632 275.236,662.101 275.236,666.462C275.236,670.514 278.189,673.1 283.272,673.1C284.917,673.1 286.599,672.869 287.683,672.444L288.244,674.142Z" style="fill:white;"/>
                </g>
                <g transform="matrix(0,1.33333,1.33333,0,-499.555,-155.004)">
                    <rect x="283.46" y="665.04" width="16.556" height="2.728" style="fill:white;"/>
                </g>
                <g transform="matrix(1.33333,0,0,1.33333,0,-659.345)">
                    <path d="M314.445,669.82C314.445,675.454 310.184,678.465 304.914,678.542L304.914,676.766C309.175,676.766 311.604,673.641 311.604,669.897C311.604,666.617 309.436,663.182 304.914,663.182L304.914,661.445L305.063,661.445C310.782,661.445 314.445,664.88 314.445,669.82ZM304.914,660.751L304.914,659.091L306.147,657.856L309.436,657.856L305.475,660.751L304.914,660.751ZM304.914,678.542L304.727,678.542C299.195,678.542 295.308,675.146 295.308,670.129C295.308,664.919 299.382,661.484 304.914,661.445L304.914,663.182C300.428,663.182 298.223,666.463 298.223,670.09C298.223,673.602 300.653,676.766 304.876,676.766L304.914,676.766L304.914,678.542ZM304.914,659.091L304.914,660.751L303.232,660.751L304.914,659.091Z" style="fill:white;"/>
                </g>
                <g transform="matrix(1.33333,0,0,1.33333,0,-654.559)">
                    <path d="M316.725,674.683L316.725,658.127L319.678,658.127L326.406,666.501C327.938,668.431 329.172,670.167 330.144,671.865L330.219,671.827C329.957,669.627 329.92,667.62 329.92,665.034L329.92,658.127L332.461,658.127L332.461,674.683L329.732,674.683L323.079,666.269C321.622,664.417 320.201,662.526 319.155,660.751L319.043,660.751C319.23,662.873 319.267,664.842 319.267,667.581L319.267,674.683L316.725,674.683Z" style="fill:white;"/>
                </g>
                <g transform="matrix(1.33333,0,0,1.33333,0,-579.999)">
                    <path d="M193.23,630.186C195.697,630.456 197.565,631.112 198.948,632.115C200.78,633.466 201.864,635.357 201.864,638.059C201.864,640.76 200.817,642.96 198.874,644.465C197.528,645.545 195.622,646.278 193.23,646.626L193.23,644.851C197.042,644.079 199.06,641.725 199.06,638.136C199.098,634.894 197.154,632.617 193.23,631.961L193.23,630.186ZM184.707,630.379C186.352,630.186 188.296,630.031 190.463,630.031C191.436,630.031 192.37,630.108 193.23,630.186L193.23,631.961C192.445,631.806 191.547,631.729 190.576,631.729C189.193,631.729 188.109,631.845 187.399,631.961L187.399,645.005C188.071,645.121 189.081,645.159 190.127,645.159C191.286,645.159 192.295,645.044 193.23,644.851L193.23,646.626C192.108,646.78 190.912,646.858 189.604,646.858C187.698,646.858 186.053,646.78 184.707,646.665L184.707,630.379Z" style="fill:white;"/>
                </g>
                <g transform="matrix(1.33333,0,0,1.33333,0,-579.999)">
                    <path d="M214.983,638.946L206.835,638.946L206.835,644.928L215.918,644.928L215.918,646.703L204.144,646.703L204.144,630.186L215.469,630.186L215.469,631.961L206.835,631.961L206.835,637.209L214.983,637.209L214.983,638.946Z" style="fill:white;"/>
                </g>
                <g transform="matrix(1.33333,0,0,1.33333,0,-579.638)">
                    <path d="M227.804,629.915L230.532,629.915L230.532,640.953C230.532,645.352 227.804,646.703 224.178,646.703C223.206,646.703 221.973,646.549 221.3,646.317L221.711,644.581C222.272,644.735 223.057,644.889 223.954,644.889C226.384,644.889 227.804,644.04 227.804,640.799L227.804,629.915Z" style="fill:white;"/>
                </g>
                <g transform="matrix(1.33333,0,0,1.33333,0,-579.999)">
                    <path d="M240.849,630.186L242.531,630.186L249.67,646.703L246.792,646.703L244.549,641.532L240.849,641.532L240.849,639.834L243.988,639.834L241.933,635.087C241.484,634.006 241.185,633.003 240.849,632.077L240.849,630.186ZM237.148,641.532L234.943,646.703L232.214,646.703L239.279,630.186L240.849,630.186L240.849,632.077L240.811,632.077C240.475,633.042 240.138,634.045 239.727,635.048L237.709,639.834L240.849,639.834L240.849,641.532L237.148,641.532Z" style="fill:white;"/>
                </g>
                <g transform="matrix(1.33333,0,0,1.33333,0,-585.041)">
                    <path d="M262.378,642.728L254.23,642.728L254.23,648.71L263.275,648.71L263.275,650.485L251.501,650.485L251.501,633.968L262.827,633.968L262.827,635.743L254.23,635.743L254.23,640.991L262.378,640.991L262.378,642.728ZM261.818,630.186L257.893,633.08L255.65,633.08L258.528,630.186L261.818,630.186Z" style="fill:white;"/>
                </g>
                <g transform="matrix(1.33333,0,0,1.33333,0,-579.999)">
                    <path d="M265.555,646.703L265.555,630.186L268.508,630.186L275.236,638.56C276.769,640.49 278.002,642.226 278.974,643.925L279.049,643.886C278.787,641.686 278.749,639.679 278.749,637.094L278.749,630.186L281.291,630.186L281.291,646.703L278.563,646.703L271.909,638.329C270.452,636.476 269.031,634.585 267.985,632.81L267.91,632.81C268.059,634.894 268.097,636.901 268.097,639.641L268.097,646.703L265.555,646.703Z" style="fill:white;"/>
                </g>
            </g>
        </g>
    </g>
</svg>
