<?xml version="1.0" encoding="UTF-8" standalone="no"?>
<!DOCTYPE svg PUBLIC "-//W3C//DTD SVG 1.1//EN" "http://www.w3.org/Graphics/SVG/1.1/DTD/svg11.dtd">
<svg width="100%" height="100%" viewBox="0 0 1000 1000" version="1.1" xmlns="http://www.w3.org/2000/svg" xmlns:xlink="http://www.w3.org/1999/xlink" xml:space="preserve" xmlns:serif="http://www.serif.com/" style="fill-rule:evenodd;clip-rule:evenodd;stroke-linejoin:round;stroke-miterlimit:2;">
    <g transform="matrix(1,0,0,1,-1204.66,-2264.3)">
        <g id="logo-export" serif:id="logo export" transform="matrix(1,0,0,1,-3.67532,2264.3)">
            <rect x="1208.33" y="0" width="1000" height="1000" style="fill:none;"/>
            <g transform="matrix(-1.15751,0,0,1.15751,2321.37,-47.3074)">
                <g transform="matrix(3.1936,0,0,-3.1936,311.383,693.11)">
                    <path d="M-65.12,68.976L-65.12,-64.477L68.333,-64.477C68.333,68.976 68.333,68.976 -65.12,68.976Z" style="fill:url(#_Linear1);fill-rule:nonzero;"/>
                </g>
                <g transform="matrix(3.1936,0,0,-3.1936,737.578,693.11)">
                    <path d="M-65.12,68.976L-65.12,-64.477L68.333,-64.477C68.333,68.976 68.333,68.976 -65.12,68.976Z" style="fill:url(#_Linear2);fill-rule:nonzero;"/>
                </g>
                <g transform="matrix(3.1936,0,0,-3.1936,311.383,266.916)">
                    <path d="M-65.12,68.976L-65.12,-64.477L68.333,-64.477C68.333,68.976 68.333,68.976 -65.12,68.976Z" style="fill:url(#_Linear3);fill-rule:nonzero;"/>
                </g>
                <g transform="matrix(3.1936,0,0,-3.1936,737.578,693.11)">
                    <path d="M-65.12,68.976L-65.12,-64.477L68.333,-64.477C68.333,68.976 68.333,68.976 -65.12,68.976ZM-56.103,59.956L-56.103,-55.46L59.314,-55.46C59.306,-20.93 59.12,3.827 55.861,21.572C53.862,32.457 50.829,40.364 45.275,45.918C39.722,51.471 31.815,54.504 20.93,56.504C3.185,59.763 -21.572,59.949 -56.103,59.956Z" style="fill:url(#_Linear4);"/>
                </g>
                <g transform="matrix(3.1936,0,0,-3.1936,311.383,693.11)">
                    <path d="M-65.12,68.976L-65.12,-64.477L68.333,-64.477C68.333,68.976 68.333,68.976 -65.12,68.976ZM-56.103,59.956L-56.103,-55.46L59.314,-55.46C59.306,-20.93 59.12,3.827 55.861,21.572C53.862,32.457 50.829,40.364 45.275,45.918C39.722,51.471 31.815,54.504 20.93,56.504C3.185,59.763 -21.572,59.949 -56.103,59.956Z" style="fill:url(#_Linear5);"/>
                </g>
                <g transform="matrix(3.1936,0,0,-3.1936,311.383,266.916)">
                    <path d="M-65.12,68.976L-65.12,-64.477L68.333,-64.477C68.333,68.976 68.333,68.976 -65.12,68.976ZM-56.103,59.956L-56.103,-55.46L59.314,-55.46C59.306,-20.93 59.12,3.827 55.861,21.572C53.862,32.457 50.829,40.364 45.275,45.918C39.722,51.471 31.815,54.504 20.93,56.504C3.185,59.763 -21.572,59.949 -56.103,59.956Z" style="fill:url(#_Linear6);"/>
                </g>
            </g>
        </g>
    </g>
    <defs>
        <linearGradient id="_Linear1" x1="0" y1="0" x2="1" y2="0" gradientUnits="userSpaceOnUse" gradientTransform="matrix(98.3713,98.3713,-98.3713,98.3713,-30.0383,-29.3957)"><stop offset="0" style="stop-color:rgb(15,104,95);stop-opacity:1"/><stop offset="0.56" style="stop-color:rgb(25,121,111);stop-opacity:1"/><stop offset="1" style="stop-color:rgb(62,186,173);stop-opacity:1"/></linearGradient>
        <linearGradient id="_Linear2" x1="0" y1="0" x2="1" y2="0" gradientUnits="userSpaceOnUse" gradientTransform="matrix(98.3713,98.3713,-98.3713,98.3713,-30.0383,-29.3957)"><stop offset="0" style="stop-color:rgb(15,104,95);stop-opacity:1"/><stop offset="0.56" style="stop-color:rgb(25,121,111);stop-opacity:1"/><stop offset="1" style="stop-color:rgb(62,186,173);stop-opacity:1"/></linearGradient>
        <linearGradient id="_Linear3" x1="0" y1="0" x2="1" y2="0" gradientUnits="userSpaceOnUse" gradientTransform="matrix(98.3713,98.3713,-98.3713,98.3713,-30.0383,-29.3957)"><stop offset="0" style="stop-color:rgb(15,104,95);stop-opacity:1"/><stop offset="0.56" style="stop-color:rgb(25,121,111);stop-opacity:1"/><stop offset="1" style="stop-color:rgb(62,186,173);stop-opacity:1"/></linearGradient>
        <linearGradient id="_Linear4" x1="0" y1="0" x2="1" y2="0" gradientUnits="userSpaceOnUse" gradientTransform="matrix(-53.4075,-61.7164,61.7164,-53.4075,46.8214,63.9655)"><stop offset="0" style="stop-color:rgb(161,230,216);stop-opacity:1"/><stop offset="1" style="stop-color:rgb(18,105,95);stop-opacity:1"/></linearGradient>
        <linearGradient id="_Linear5" x1="0" y1="0" x2="1" y2="0" gradientUnits="userSpaceOnUse" gradientTransform="matrix(-53.4914,-52.4195,52.4195,-53.4914,46.8214,63.9655)"><stop offset="0" style="stop-color:rgb(161,230,216);stop-opacity:1"/><stop offset="1" style="stop-color:rgb(18,105,95);stop-opacity:1"/></linearGradient>
        <linearGradient id="_Linear6" x1="0" y1="0" x2="1" y2="0" gradientUnits="userSpaceOnUse" gradientTransform="matrix(-56.9312,-57.4856,57.4856,-56.9312,52.023,59.7347)"><stop offset="0" style="stop-color:rgb(161,230,216);stop-opacity:1"/><stop offset="1" style="stop-color:rgb(18,105,95);stop-opacity:1"/></linearGradient>
    </defs>
</svg>
