<svg id="Layer_1" data-name="Layer 1" xmlns="http://www.w3.org/2000/svg" viewBox="0 0 1000 1000"><defs><style>.cls-1{fill:#725ac1;}.cls-1,.cls-2,.cls-3{stroke:#fff;stroke-miterlimit:10;stroke-width:2px;}.cls-2{fill:#1e1e1e;}.cls-3{fill:#1abc9c;}</style></defs><path class="cls-1" d="M585.16,842.74A267.53,267.53,0,0,1,500,828.92a268.2,268.2,0,0,1-85.2,13.82q-5,0-10.09-.22A320.62,320.62,0,0,0,500,886.16a319.43,319.43,0,0,0,95.17-43.64C591.85,842.67,588.52,842.74,585.16,842.74Z"/><path class="cls-1" d="M909,573.74c0,178.58-145.25,323.82-323.79,323.82A321.42,321.42,0,0,1,500,886.16a319.43,319.43,0,0,0,95.17-43.64c143.71-5.26,259-123.83,259-268.78a267,267,0,0,0-78.76-190.2c-3.84-3.84-7.78-7.53-11.81-11.11a266.73,266.73,0,0,0-168.34-67.51c-3.33-.11-6.69-.18-10.05-.18A267,267,0,0,0,500,318.59C393.28,354.26,316.16,455.17,316.16,573.74a270.13,270.13,0,0,0,5.33,53.54,270.83,270.83,0,0,1-59.42-75.58c6.94-102.7,62-192.43,142.72-246.78a323.12,323.12,0,0,1,408.36,38.85l1,1A321.66,321.66,0,0,1,909,573.74Z"/><path class="cls-1" d="M500,828.92a268.2,268.2,0,0,1-85.2,13.82q-5,0-10.09-.22A323.34,323.34,0,0,1,261.33,573.74c0-7.42.26-14.77.74-22a270.83,270.83,0,0,0,59.42,75.58A269.77,269.77,0,0,0,500,828.92Z"/><path class="cls-2" d="M775.36,383.54c-3.84-3.84-7.78-7.53-11.81-11.11a269,269,0,1,1-527.18.25,270.45,270.45,0,0,0-59.43,75.62,323.81,323.81,0,0,0,646.12-.4A269.88,269.88,0,0,0,775.36,383.54ZM500,157.26c95.58,0,179.64,50.11,227.33,125.4a322.82,322.82,0,0,1,85.82,61.11C776.57,205,650,102.44,500,102.44c-150.22,0-276.86,102.77-313.3,241.73A324.38,324.38,0,0,1,272.41,283C320.07,207.48,404.28,157.26,500,157.26Z"/><path class="cls-3" d="M642.43,717a324.38,324.38,0,0,0,85.71-61.18,324.65,324.65,0,0,1-133,186.73A323.65,323.65,0,0,1,91.05,573.74a322.8,322.8,0,0,1,95-228.87l.69-.7A324.38,324.38,0,0,1,272.41,283,323.8,323.8,0,0,1,500,261.28a321.63,321.63,0,0,0-95.25,43.64,269,269,0,0,0,0,537.6q5.06.22,10.09.22A268.5,268.5,0,0,0,642.43,717Z"/><path class="cls-3" d="M500,318.59a267,267,0,0,1,85.16-13.85c3.36,0,6.72.07,10.05.18C676,359.27,731,449,737.9,551.66a269.74,269.74,0,0,1-59.43,75.62,266.67,266.67,0,0,0,5.37-53.54C683.84,455.17,606.72,354.26,500,318.59Z"/></svg>