<svg id="Layer_1" data-name="Layer 1" xmlns="http://www.w3.org/2000/svg" viewBox="0 0 1000 1000"><defs><style>.cls-1{fill:#aff7d0;}.cls-2{fill:#0e685f;}</style></defs><path class="cls-1" d="M696.85,129.14V277.29A296.53,296.53,0,0,1,797.25,500c0,164.17-133.08,297.25-297.25,297.25S202.75,664.17,202.75,500,335.83,202.75,500,202.75a297.25,297.25,0,0,1,88.78,13.48V89.63A420.9,420.9,0,0,0,500,80.19c-231.85,0-419.81,188-419.81,419.81S268.15,919.81,500,919.81,919.81,731.85,919.81,500C919.81,339.29,829.49,199.69,696.85,129.14Z"/><path class="cls-2" d="M495.29,728.51q-69.36,0-115.6-27.83t-76.2-68.93l.08-.08,69.28-71q26.52,33.41,54.37,51.81t66.36,18.41q42.81,0,68.93-28.69t26.11-88.62v-.15l.16-297.21c-28-8.74-57.91-13-88.78-13-163.88,0-296.74,132.86-296.74,296.74S336.12,796.74,500,796.74,796.74,663.88,796.74,500a296.5,296.5,0,0,0-99.88-222.7h0L696.51,516v.16q0,53.1-15,92.9T640,675.42a169.78,169.78,0,0,1-63.37,39.82Q539.81,728.5,495.29,728.51Z"/></svg>