<?xml version="1.0" standalone="no"?>
<!DOCTYPE svg PUBLIC "-//W3C//DTD SVG 20010904//EN"
 "http://www.w3.org/TR/2001/REC-SVG-20010904/DTD/svg10.dtd">
<svg version="1.0" xmlns="http://www.w3.org/2000/svg"
 width="700.000000pt" height="700.000000pt" viewBox="0 0 700.000000 700.000000"
 preserveAspectRatio="xMidYMid meet">
<metadata>
Created by potrace 1.14, written by Peter Selinger 2001-2017
</metadata>
<g transform="translate(0.000000,700.000000) scale(0.100000,-0.100000)"
fill="#000000" stroke="none">
<path d="M6437 6954 c-1 -1 -198 -4 -437 -7 -498 -7 -605 -11 -870 -32 -25 -2
-76 -6 -115 -9 -38 -3 -79 -8 -90 -10 -11 -2 -42 -7 -70 -10 -57 -7 -120 -16
-150 -22 -11 -2 -33 -7 -50 -10 -16 -2 -48 -10 -70 -16 -22 -5 -51 -12 -65
-15 -47 -8 -135 -35 -147 -45 -7 -6 -13 -8 -13 -5 0 3 -28 -6 -62 -20 -189
-77 -303 -158 -441 -314 -23 -26 -101 -158 -129 -219 -32 -67 -86 -225 -103
-300 0 -3 -5 -23 -10 -45 -5 -22 -9 -42 -10 -45 0 -3 -5 -27 -10 -55 -5 -27
-9 -52 -10 -55 -1 -3 -5 -30 -9 -60 -5 -30 -10 -63 -12 -73 -4 -25 -19 -179
-28 -292 -22 -286 -24 -357 -32 -1125 -3 -366 -7 -666 -8 -666 0 -1 -280 -4
-621 -7 -632 -6 -899 -12 -1015 -22 -36 -3 -99 -7 -140 -10 -41 -2 -95 -7
-120 -10 -25 -2 -70 -7 -100 -10 -30 -2 -66 -7 -80 -10 -14 -2 -45 -7 -70 -10
-25 -3 -58 -8 -75 -11 -16 -2 -42 -6 -56 -8 -14 -1 -31 -6 -37 -10 -7 -4 -12
-5 -12 -2 0 3 -12 1 -26 -5 -15 -5 -43 -12 -63 -15 -97 -15 -400 -137 -444
-178 -7 -6 -31 -23 -54 -38 -41 -27 -183 -165 -183 -178 0 -4 -11 -20 -25 -36
-23 -27 -125 -220 -134 -254 -2 -8 -15 -46 -29 -85 -13 -38 -25 -79 -27 -90
-2 -11 -4 -21 -5 -22 -2 -2 -3 -6 -4 -10 -17 -69 -19 -79 -41 -198 -8 -44 -17
-98 -19 -120 -23 -183 -29 -249 -42 -435 -11 -169 -13 -239 -19 -620 -11 -641
-11 -1060 0 -1061 40 -4 6895 -3 6896 1 0 3 2 1555 2 3448 1 2180 -2 3446 -8
3450 -7 5 -503 10 -508 6z m-618 -3458 c-2 -2 -105 -7 -229 -10 -211 -6 -265
-9 -415 -20 -71 -6 -188 -16 -230 -21 -16 -2 -52 -7 -80 -10 -27 -3 -63 -8
-80 -11 -16 -3 -43 -7 -60 -10 -28 -4 -48 -8 -100 -18 -160 -33 -300 -79 -430
-142 -162 -78 -311 -214 -403 -368 -43 -71 -111 -216 -118 -251 -2 -5 -16 -57
-32 -115 -41 -142 -62 -259 -87 -475 -3 -27 -8 -66 -10 -85 -5 -38 -14 -163
-20 -275 -3 -38 -7 -169 -11 -290 -3 -121 -8 -222 -10 -224 -2 -2 -4 521 -4
1162 l0 1167 1162 0 c639 0 1159 -2 1157 -4z m44 -3 c-7 -2 -19 -2 -25 0 -7 3
-2 5 12 5 14 0 19 -2 13 -5z m-2356 -2355 c-3 -8 -6 -5 -6 6 -1 11 2 17 5 13
3 -3 4 -12 1 -19z"/>
</g>
</svg>
