<?xml version="1.0" standalone="no"?>
<!DOCTYPE svg PUBLIC "-//W3C//DTD SVG 20010904//EN"
 "http://www.w3.org/TR/2001/REC-SVG-20010904/DTD/svg10.dtd">
<svg version="1.0" xmlns="http://www.w3.org/2000/svg"
 width="700.000000pt" height="700.000000pt" viewBox="0 0 700.000000 700.000000"
 preserveAspectRatio="xMidYMid meet">
<metadata>
Created by potrace 1.11, written by Peter Selinger 2001-2013
</metadata>
<g transform="translate(0.000000,700.000000) scale(0.100000,-0.100000)"
fill="#000000" stroke="none">
<path d="M3338 6435 c-2 -1 -43 -5 -91 -9 -97 -7 -282 -32 -337 -46 -19 -5
-46 -11 -60 -14 -134 -24 -362 -100 -539 -179 -338 -150 -618 -343 -886 -611
-242 -242 -410 -475 -563 -781 -116 -234 -224 -564 -258 -793 -3 -20 -9 -64
-14 -97 -18 -114 -25 -231 -25 -400 0 -155 10 -349 20 -378 2 -7 6 -35 9 -62
5 -42 21 -127 51 -267 61 -283 253 -707 444 -978 193 -276 458 -539 740 -736
187 -131 448 -267 636 -334 33 -12 69 -25 80 -30 44 -20 317 -92 395 -105 19
-3 58 -10 85 -15 57 -11 126 -19 240 -30 83 -7 475 -5 510 3 12 3 52 8 90 11
39 4 77 9 85 11 8 2 31 6 50 9 58 9 93 16 135 28 22 5 51 12 65 15 73 13 345
101 425 137 17 8 73 33 125 57 52 23 100 46 106 51 6 4 31 19 55 32 87 46 194
112 269 165 215 152 456 377 610 571 184 231 370 557 465 815 33 90 99 312
111 375 44 224 42 213 63 410 9 81 6 447 -3 520 -3 25 -8 68 -12 95 -51 445
-239 929 -509 1313 -239 340 -555 631 -918 847 -54 32 -100 55 -104 52 -8 -9
-7 -1012 1 -1026 4 -6 4 -11 -1 -11 -4 0 -8 -399 -9 -888 0 -807 -3 -976 -19
-1082 -56 -392 -230 -709 -497 -910 -133 -101 -246 -156 -414 -205 -97 -28
-109 -31 -244 -50 -92 -13 -466 -15 -486 -2 -5 3 -34 8 -64 12 -30 4 -88 16
-130 27 -41 10 -82 21 -90 23 -8 1 -55 19 -103 38 -168 67 -361 200 -523 361
-100 101 -174 187 -174 203 1 4 108 118 240 253 l239 245 33 -40 c88 -107 171
-184 335 -315 28 -22 154 -80 218 -100 194 -59 429 -42 589 43 138 73 251 228
296 403 19 74 25 110 35 209 2 22 5 726 6 1564 1 1213 -1 1525 -11 1531 -7 4
-38 13 -69 19 -58 11 -67 12 -211 32 -74 10 -483 22 -492 14z m-1398 -1568 c0
-2 -12 -14 -27 -28 l-28 -24 24 28 c23 25 31 32 31 24z m3270 -2561 c0 -2 -8
-10 -17 -17 -16 -13 -17 -12 -4 4 13 16 21 21 21 13z m-3199 -253 c13 -16 12
-17 -3 -4 -10 7 -18 15 -18 17 0 8 8 3 21 -13z"/>
</g>
</svg>
